<svg width="312" height="326" viewBox="0 0 312 326" fill="none" xmlns="http://www.w3.org/2000/svg">
<path d="M179.878 246H150.792L139.229 215.919H86.2944L75.3643 246H47L98.5796 113.573H126.854L179.878 246ZM130.647 193.607L112.4 144.467L94.5146 193.607H130.647ZM193.338 246V113.573H220.076V246H193.338Z" fill="black"/>
<path d="M59.3613 279.631V276.254H68.084V284.238C67.2363 285.059 66.0059 285.783 64.3926 286.412C62.7884 287.032 61.1615 287.342 59.5117 287.342C57.4154 287.342 55.5879 286.904 54.0293 286.029C52.4707 285.145 51.2995 283.887 50.5156 282.256C49.7318 280.615 49.3398 278.833 49.3398 276.91C49.3398 274.823 49.7773 272.968 50.6523 271.346C51.5273 269.723 52.8079 268.479 54.4941 267.613C55.7793 266.948 57.3789 266.615 59.293 266.615C61.7812 266.615 63.7227 267.139 65.1172 268.188C66.5208 269.227 67.4232 270.667 67.8242 272.508L63.8047 273.26C63.5221 272.275 62.9889 271.501 62.2051 270.936C61.4303 270.361 60.4596 270.074 59.293 270.074C57.5247 270.074 56.1165 270.635 55.0684 271.756C54.0293 272.877 53.5098 274.54 53.5098 276.746C53.5098 279.125 54.0384 280.911 55.0957 282.105C56.153 283.29 57.5384 283.883 59.252 283.883C60.0996 283.883 60.9473 283.719 61.7949 283.391C62.6517 283.053 63.3854 282.648 63.9961 282.174V279.631H59.3613ZM71.8301 287V266.957H86.6914V270.348H75.877V274.791H85.9395V278.168H75.877V283.623H87.0742V287H71.8301ZM90.5469 287V266.957H94.4844L102.688 280.342V266.957H106.447V287H102.387L94.3066 273.93V287H90.5469ZM110.74 287V266.957H125.602V270.348H114.787V274.791H124.85V278.168H114.787V283.623H125.984V287H110.74ZM129.43 287V266.957H137.947C140.089 266.957 141.643 267.139 142.609 267.504C143.585 267.859 144.364 268.497 144.947 269.418C145.531 270.339 145.822 271.391 145.822 272.576C145.822 274.08 145.38 275.324 144.496 276.309C143.612 277.284 142.29 277.899 140.531 278.154C141.406 278.665 142.126 279.225 142.691 279.836C143.266 280.447 144.036 281.531 145.002 283.09L147.449 287H142.609L139.684 282.639C138.645 281.08 137.934 280.1 137.551 279.699C137.168 279.289 136.762 279.011 136.334 278.865C135.906 278.71 135.227 278.633 134.297 278.633H133.477V287H129.43ZM133.477 275.434H136.471C138.412 275.434 139.624 275.352 140.107 275.188C140.59 275.023 140.969 274.741 141.242 274.34C141.516 273.939 141.652 273.438 141.652 272.836C141.652 272.161 141.47 271.619 141.105 271.209C140.75 270.79 140.244 270.525 139.588 270.416C139.26 270.37 138.275 270.348 136.635 270.348H133.477V275.434ZM167.725 287H163.322L161.572 282.447H153.561L151.906 287H147.613L155.42 266.957H159.699L167.725 287ZM160.273 279.07L157.512 271.633L154.805 279.07H160.273ZM172.318 287V270.348H166.371V266.957H182.299V270.348H176.365V287H172.318ZM184.924 287V266.957H199.785V270.348H188.971V274.791H199.033V278.168H188.971V283.623H200.168V287H184.924ZM203.586 266.957H210.982C212.65 266.957 213.922 267.085 214.797 267.34C215.973 267.686 216.98 268.301 217.818 269.186C218.657 270.07 219.295 271.154 219.732 272.439C220.17 273.715 220.389 275.292 220.389 277.17C220.389 278.82 220.184 280.242 219.773 281.436C219.272 282.894 218.557 284.074 217.627 284.977C216.925 285.66 215.977 286.193 214.783 286.576C213.89 286.859 212.696 287 211.201 287H203.586V266.957ZM207.633 270.348V283.623H210.654C211.785 283.623 212.6 283.559 213.102 283.432C213.758 283.268 214.3 282.99 214.729 282.598C215.166 282.206 215.521 281.563 215.795 280.67C216.068 279.768 216.205 278.542 216.205 276.992C216.205 275.443 216.068 274.253 215.795 273.424C215.521 272.594 215.139 271.947 214.646 271.482C214.154 271.018 213.53 270.703 212.773 270.539C212.208 270.411 211.101 270.348 209.451 270.348H207.633Z" fill="black"/>
<path d="M192 62H32C23.7157 62 17 68.7157 17 77V294C17 302.284 23.7157 309 32 309H243C251.284 309 258 302.284 258 294V142.754L277 142.324V299C277 313.912 264.912 326 250 326H27C12.0883 326 0 313.912 0 299V72C3.02821e-06 57.0883 12.0883 45 27 45H192V62Z" fill="black"/>
<path d="M290.38 68.9295C279.706 67.7001 271.261 57.6086 270.233 44.86L268.5 23.3333L266.767 44.86C265.739 57.6108 257.294 67.7023 246.62 68.9295L228.625 71L246.62 73.0705C257.294 74.2999 265.739 84.3914 266.767 97.14L268.5 118.667L270.233 97.14C271.261 84.3892 279.706 74.2977 290.38 73.0705L308.375 71L290.38 68.9295Z" fill="black"/>
<path d="M244.829 30.7258C238.327 29.9693 233.182 23.7592 232.556 15.9139L231.5 2.66667L230.444 15.9139C229.818 23.7605 224.673 29.9706 218.171 30.7258L207.208 32L218.171 33.2742C224.673 34.0307 229.818 40.2408 230.444 48.0862L231.5 61.3333L232.556 48.0862C233.182 40.2395 238.327 34.0294 244.829 33.2742L255.792 32L244.829 30.7258Z" fill="black"/>
</svg>
