<svg width="277" height="281" viewBox="0 0 277 281" fill="none" xmlns="http://www.w3.org/2000/svg">
<path d="M179.878 201H150.792L139.229 170.919H86.2944L75.3643 201H47L98.5796 68.5732H126.854L179.878 201ZM130.647 148.607L112.4 99.4668L94.5146 148.607H130.647ZM193.338 201V68.5732H220.076V201H193.338Z" fill="black"/>
<path d="M59.3613 234.631V231.254H68.084V239.238C67.2363 240.059 66.0059 240.783 64.3926 241.412C62.7884 242.032 61.1615 242.342 59.5117 242.342C57.4154 242.342 55.5879 241.904 54.0293 241.029C52.4707 240.145 51.2995 238.887 50.5156 237.256C49.7318 235.615 49.3398 233.833 49.3398 231.91C49.3398 229.823 49.7773 227.968 50.6523 226.346C51.5273 224.723 52.8079 223.479 54.4941 222.613C55.7793 221.948 57.3789 221.615 59.293 221.615C61.7812 221.615 63.7227 222.139 65.1172 223.188C66.5208 224.227 67.4232 225.667 67.8242 227.508L63.8047 228.26C63.5221 227.275 62.9889 226.501 62.2051 225.936C61.4303 225.361 60.4596 225.074 59.293 225.074C57.5247 225.074 56.1165 225.635 55.0684 226.756C54.0293 227.877 53.5098 229.54 53.5098 231.746C53.5098 234.125 54.0384 235.911 55.0957 237.105C56.153 238.29 57.5384 238.883 59.252 238.883C60.0996 238.883 60.9473 238.719 61.7949 238.391C62.6517 238.053 63.3854 237.648 63.9961 237.174V234.631H59.3613ZM71.8301 242V221.957H86.6914V225.348H75.877V229.791H85.9395V233.168H75.877V238.623H87.0742V242H71.8301ZM90.5469 242V221.957H94.4844L102.688 235.342V221.957H106.447V242H102.387L94.3066 228.93V242H90.5469ZM110.74 242V221.957H125.602V225.348H114.787V229.791H124.85V233.168H114.787V238.623H125.984V242H110.74ZM129.43 242V221.957H137.947C140.089 221.957 141.643 222.139 142.609 222.504C143.585 222.859 144.364 223.497 144.947 224.418C145.531 225.339 145.822 226.391 145.822 227.576C145.822 229.08 145.38 230.324 144.496 231.309C143.612 232.284 142.29 232.899 140.531 233.154C141.406 233.665 142.126 234.225 142.691 234.836C143.266 235.447 144.036 236.531 145.002 238.09L147.449 242H142.609L139.684 237.639C138.645 236.08 137.934 235.1 137.551 234.699C137.168 234.289 136.762 234.011 136.334 233.865C135.906 233.71 135.227 233.633 134.297 233.633H133.477V242H129.43ZM133.477 230.434H136.471C138.412 230.434 139.624 230.352 140.107 230.188C140.59 230.023 140.969 229.741 141.242 229.34C141.516 228.939 141.652 228.438 141.652 227.836C141.652 227.161 141.47 226.619 141.105 226.209C140.75 225.79 140.244 225.525 139.588 225.416C139.26 225.37 138.275 225.348 136.635 225.348H133.477V230.434ZM167.725 242H163.322L161.572 237.447H153.561L151.906 242H147.613L155.42 221.957H159.699L167.725 242ZM160.273 234.07L157.512 226.633L154.805 234.07H160.273ZM172.318 242V225.348H166.371V221.957H182.299V225.348H176.365V242H172.318ZM184.924 242V221.957H199.785V225.348H188.971V229.791H199.033V233.168H188.971V238.623H200.168V242H184.924ZM203.586 221.957H210.982C212.65 221.957 213.922 222.085 214.797 222.34C215.973 222.686 216.98 223.301 217.818 224.186C218.657 225.07 219.295 226.154 219.732 227.439C220.17 228.715 220.389 230.292 220.389 232.17C220.389 233.82 220.184 235.242 219.773 236.436C219.272 237.894 218.557 239.074 217.627 239.977C216.925 240.66 215.977 241.193 214.783 241.576C213.89 241.859 212.696 242 211.201 242H203.586V221.957ZM207.633 225.348V238.623H210.654C211.785 238.623 212.6 238.559 213.102 238.432C213.758 238.268 214.3 237.99 214.729 237.598C215.166 237.206 215.521 236.563 215.795 235.67C216.068 234.768 216.205 233.542 216.205 231.992C216.205 230.443 216.068 229.253 215.795 228.424C215.521 227.594 215.139 226.947 214.646 226.482C214.154 226.018 213.53 225.703 212.773 225.539C212.208 225.411 211.101 225.348 209.451 225.348H207.633Z" fill="black"/>
<path d="M250 0C264.912 0 277 12.0883 277 27V254C277 268.912 264.912 281 250 281H27C12.0883 281 0 268.912 0 254V27C3.02821e-06 12.0883 12.0883 0 27 0H250ZM32 17C23.7157 17 17 23.7157 17 32V249C17 257.284 23.7157 264 32 264H243C251.284 264 258 257.284 258 249V32C258 23.7157 251.284 17 243 17H32Z" fill="black"/>
</svg>
