<svg width="312" height="326" viewBox="0 0 312 326" fill="none" xmlns="http://www.w3.org/2000/svg">
<path d="M179.878 246H150.792L139.229 215.919H86.2944L75.3643 246H47L98.5796 113.573H126.854L179.878 246ZM130.647 193.607L112.4 144.467L94.5146 193.607H130.647ZM193.338 246V113.573H220.076V246H193.338Z" fill="black"/>
<path d="M69.144 273.42V270.405H76.9321V277.534C76.1753 278.267 75.0767 278.914 73.6362 279.475C72.2039 280.028 70.7513 280.305 69.2783 280.305C67.4066 280.305 65.7749 279.915 64.3833 279.133C62.9917 278.344 61.946 277.221 61.2461 275.764C60.5462 274.299 60.1963 272.708 60.1963 270.991C60.1963 269.128 60.5869 267.472 61.3682 266.023C62.1494 264.574 63.2928 263.464 64.7983 262.69C65.9458 262.096 67.374 261.799 69.083 261.799C71.3047 261.799 73.0381 262.267 74.2832 263.203C75.5365 264.131 76.3421 265.417 76.7002 267.061L73.1113 267.732C72.859 266.853 72.383 266.161 71.6831 265.657C70.9914 265.144 70.1247 264.888 69.083 264.888C67.5042 264.888 66.2469 265.388 65.311 266.389C64.3833 267.39 63.9194 268.875 63.9194 270.845C63.9194 272.969 64.3914 274.564 65.3354 275.63C66.2795 276.688 67.5164 277.217 69.0464 277.217C69.8032 277.217 70.5601 277.07 71.3169 276.777C72.0819 276.476 72.737 276.114 73.2822 275.691V273.42H69.144ZM80.2769 280V262.104H93.5459V265.132H83.8901V269.099H92.8745V272.114H83.8901V276.985H93.8877V280H80.2769ZM96.9883 280V262.104H100.504L107.828 274.055V262.104H111.185V280H107.56L100.345 268.33V280H96.9883ZM115.018 280V262.104H128.287V265.132H118.631V269.099H127.616V272.114H118.631V276.985H128.629V280H115.018ZM131.705 280V262.104H139.31C141.222 262.104 142.61 262.267 143.473 262.593C144.343 262.91 145.039 263.48 145.56 264.302C146.081 265.124 146.341 266.064 146.341 267.122C146.341 268.464 145.947 269.575 145.157 270.454C144.368 271.325 143.188 271.874 141.617 272.102C142.398 272.558 143.041 273.058 143.546 273.604C144.059 274.149 144.746 275.117 145.609 276.509L147.794 280H143.473L140.86 276.106C139.933 274.714 139.298 273.84 138.956 273.481C138.614 273.115 138.252 272.867 137.87 272.737C137.487 272.598 136.881 272.529 136.051 272.529H135.318V280H131.705ZM135.318 269.673H137.992C139.725 269.673 140.807 269.6 141.239 269.453C141.67 269.307 142.008 269.054 142.252 268.696C142.496 268.338 142.618 267.891 142.618 267.354C142.618 266.751 142.455 266.267 142.13 265.901C141.812 265.527 141.361 265.291 140.775 265.193C140.482 265.152 139.603 265.132 138.138 265.132H135.318V269.673ZM165.897 280H161.966L160.404 275.935H153.25L151.773 280H147.94L154.911 262.104H158.731L165.897 280ZM159.244 272.92L156.778 266.279L154.361 272.92H159.244ZM169.999 280V265.132H164.688V262.104H178.91V265.132H173.612V280H169.999ZM181.253 280V262.104H194.522V265.132H184.867V269.099H193.851V272.114H184.867V276.985H194.864V280H181.253ZM197.916 262.104H204.52C206.009 262.104 207.145 262.218 207.926 262.446C208.976 262.756 209.875 263.305 210.624 264.094C211.372 264.884 211.942 265.852 212.333 267C212.723 268.139 212.918 269.547 212.918 271.223C212.918 272.696 212.735 273.966 212.369 275.032C211.922 276.334 211.283 277.388 210.453 278.193C209.826 278.804 208.98 279.28 207.914 279.622C207.116 279.874 206.05 280 204.715 280H197.916V262.104ZM201.529 265.132V276.985H204.227C205.236 276.985 205.965 276.928 206.412 276.814C206.998 276.667 207.482 276.419 207.865 276.069C208.255 275.719 208.573 275.146 208.817 274.348C209.061 273.542 209.183 272.448 209.183 271.064C209.183 269.681 209.061 268.619 208.817 267.878C208.573 267.138 208.231 266.56 207.792 266.145C207.352 265.73 206.795 265.449 206.119 265.303C205.615 265.189 204.626 265.132 203.153 265.132H201.529Z" fill="black"/>
<path d="M138.5 45C159.076 45 178.602 49.4886 196.157 57.5371L189.247 73.6475C173.568 66.1806 156.023 62 137.5 62C70.9497 62 17 115.95 17 182.5V188.5C17 255.05 70.9497 309 137.5 309C204.05 309 258 255.05 258 188.5V182.5C258 163.893 253.781 146.272 246.25 130.539L262.327 121.396C271.714 140.075 277 161.17 277 183.5V187.5C277 263.991 214.991 326 138.5 326C62.0086 326 0 263.991 0 187.5V183.5C0 107.009 62.0086 45 138.5 45Z" fill="black"/>
<path d="M290.38 68.9295C279.706 67.7001 271.261 57.6086 270.233 44.86L268.5 23.3333L266.767 44.86C265.739 57.6108 257.294 67.7023 246.62 68.9295L228.625 71L246.62 73.0705C257.294 74.2999 265.739 84.3914 266.767 97.14L268.5 118.667L270.233 97.14C271.261 84.3892 279.706 74.2977 290.38 73.0705L308.375 71L290.38 68.9295Z" fill="black"/>
<path d="M244.829 30.7258C238.327 29.9693 233.182 23.7592 232.556 15.9139L231.5 2.66667L230.444 15.9139C229.818 23.7605 224.673 29.9706 218.171 30.7258L207.208 32L218.171 33.2742C224.673 34.0307 229.818 40.2408 230.444 48.0862L231.5 61.3333L232.556 48.0862C233.182 40.2395 238.327 34.0294 244.829 33.2742L255.792 32L244.829 30.7258Z" fill="black"/>
</svg>
