<svg width="277" height="281" viewBox="0 0 277 281" fill="none" xmlns="http://www.w3.org/2000/svg">
<path d="M179.878 201H150.792L139.229 170.919H86.2944L75.3643 201H47L98.5796 68.5732H126.854L179.878 201ZM130.647 148.607L112.4 99.4668L94.5146 148.607H130.647ZM193.338 201V68.5732H220.076V201H193.338Z" fill="black"/>
<path d="M69.144 228.42V225.405H76.9321V232.534C76.1753 233.267 75.0767 233.914 73.6362 234.475C72.2039 235.028 70.7513 235.305 69.2783 235.305C67.4066 235.305 65.7749 234.915 64.3833 234.133C62.9917 233.344 61.946 232.221 61.2461 230.764C60.5462 229.299 60.1963 227.708 60.1963 225.991C60.1963 224.128 60.5869 222.472 61.3682 221.023C62.1494 219.574 63.2928 218.464 64.7983 217.69C65.9458 217.096 67.374 216.799 69.083 216.799C71.3047 216.799 73.0381 217.267 74.2832 218.203C75.5365 219.131 76.3421 220.417 76.7002 222.061L73.1113 222.732C72.859 221.853 72.383 221.161 71.6831 220.657C70.9914 220.144 70.1247 219.888 69.083 219.888C67.5042 219.888 66.2469 220.388 65.311 221.389C64.3833 222.39 63.9194 223.875 63.9194 225.845C63.9194 227.969 64.3914 229.564 65.3354 230.63C66.2795 231.688 67.5164 232.217 69.0464 232.217C69.8032 232.217 70.5601 232.07 71.3169 231.777C72.0819 231.476 72.737 231.114 73.2822 230.691V228.42H69.144ZM80.2769 235V217.104H93.5459V220.132H83.8901V224.099H92.8745V227.114H83.8901V231.985H93.8877V235H80.2769ZM96.9883 235V217.104H100.504L107.828 229.055V217.104H111.185V235H107.56L100.345 223.33V235H96.9883ZM115.018 235V217.104H128.287V220.132H118.631V224.099H127.616V227.114H118.631V231.985H128.629V235H115.018ZM131.705 235V217.104H139.31C141.222 217.104 142.61 217.267 143.473 217.593C144.343 217.91 145.039 218.48 145.56 219.302C146.081 220.124 146.341 221.064 146.341 222.122C146.341 223.464 145.947 224.575 145.157 225.454C144.368 226.325 143.188 226.874 141.617 227.102C142.398 227.558 143.041 228.058 143.546 228.604C144.059 229.149 144.746 230.117 145.609 231.509L147.794 235H143.473L140.86 231.106C139.933 229.714 139.298 228.84 138.956 228.481C138.614 228.115 138.252 227.867 137.87 227.737C137.487 227.598 136.881 227.529 136.051 227.529H135.318V235H131.705ZM135.318 224.673H137.992C139.725 224.673 140.807 224.6 141.239 224.453C141.67 224.307 142.008 224.054 142.252 223.696C142.496 223.338 142.618 222.891 142.618 222.354C142.618 221.751 142.455 221.267 142.13 220.901C141.812 220.527 141.361 220.291 140.775 220.193C140.482 220.152 139.603 220.132 138.138 220.132H135.318V224.673ZM165.897 235H161.966L160.404 230.935H153.25L151.773 235H147.94L154.911 217.104H158.731L165.897 235ZM159.244 227.92L156.778 221.279L154.361 227.92H159.244ZM169.999 235V220.132H164.688V217.104H178.91V220.132H173.612V235H169.999ZM181.253 235V217.104H194.522V220.132H184.867V224.099H193.851V227.114H184.867V231.985H194.864V235H181.253ZM197.916 217.104H204.52C206.009 217.104 207.145 217.218 207.926 217.446C208.976 217.756 209.875 218.305 210.624 219.094C211.372 219.884 211.942 220.852 212.333 222C212.723 223.139 212.918 224.547 212.918 226.223C212.918 227.696 212.735 228.966 212.369 230.032C211.922 231.334 211.283 232.388 210.453 233.193C209.826 233.804 208.98 234.28 207.914 234.622C207.116 234.874 206.05 235 204.715 235H197.916V217.104ZM201.529 220.132V231.985H204.227C205.236 231.985 205.965 231.928 206.412 231.814C206.998 231.667 207.482 231.419 207.865 231.069C208.255 230.719 208.573 230.146 208.817 229.348C209.061 228.542 209.183 227.448 209.183 226.064C209.183 224.681 209.061 223.619 208.817 222.878C208.573 222.138 208.231 221.56 207.792 221.145C207.352 220.73 206.795 220.449 206.119 220.303C205.615 220.189 204.626 220.132 203.153 220.132H201.529Z" fill="black"/>
<path d="M138.5 0C214.991 0 277 62.0086 277 138.5V142.5C277 218.991 214.991 281 138.5 281C62.0086 281 0 218.991 0 142.5V138.5C0 62.0086 62.0086 0 138.5 0ZM137.5 17C70.9497 17 17 70.9497 17 137.5V143.5C17 210.05 70.9497 264 137.5 264C204.05 264 258 210.05 258 143.5V137.5C258 70.9497 204.05 17 137.5 17Z" fill="black"/>
</svg>
