<svg width="312" height="326" viewBox="0 0 312 326" fill="none" xmlns="http://www.w3.org/2000/svg">
<path d="M179.878 246H150.792L139.229 215.919H86.2944L75.3643 246H47L98.5796 113.573H126.854L179.878 246ZM130.647 193.607L112.4 144.467L94.5146 193.607H130.647ZM193.338 246V113.573H220.076V246H193.338Z" fill="black"/>
<path d="M138.5 45C159.076 45 178.602 49.4886 196.157 57.5371L189.247 73.6475C173.568 66.1806 156.023 62 137.5 62C70.9497 62 17 115.95 17 182.5V188.5C17 255.05 70.9497 309 137.5 309C204.05 309 258 255.05 258 188.5V182.5C258 163.893 253.781 146.272 246.25 130.539L262.327 121.396C271.714 140.075 277 161.17 277 183.5V187.5C277 263.991 214.991 326 138.5 326C62.0086 326 0 263.991 0 187.5V183.5C0 107.009 62.0086 45 138.5 45Z" fill="black"/>
<path d="M290.38 68.9295C279.706 67.7001 271.261 57.6086 270.233 44.86L268.5 23.3333L266.767 44.86C265.739 57.6108 257.294 67.7023 246.62 68.9295L228.625 71L246.62 73.0705C257.294 74.2999 265.739 84.3914 266.767 97.14L268.5 118.667L270.233 97.14C271.261 84.3892 279.706 74.2977 290.38 73.0705L308.375 71L290.38 68.9295Z" fill="black"/>
<path d="M244.829 30.7258C238.327 29.9693 233.182 23.7592 232.556 15.9139L231.5 2.66667L230.444 15.9139C229.818 23.7605 224.673 29.9706 218.171 30.7258L207.208 32L218.171 33.2742C224.673 34.0307 229.818 40.2408 230.444 48.0862L231.5 61.3333L232.556 48.0862C233.182 40.2395 238.327 34.0294 244.829 33.2742L255.792 32L244.829 30.7258Z" fill="black"/>
</svg>
