<svg width="277" height="281" viewBox="0 0 277 281" fill="none" xmlns="http://www.w3.org/2000/svg">
<path d="M179.878 201H150.792L139.229 170.919H86.2944L75.3643 201H47L98.5796 68.5732H126.854L179.878 201ZM130.647 148.607L112.4 99.4668L94.5146 148.607H130.647ZM193.338 201V68.5732H220.076V201H193.338Z" fill="black"/>
<path d="M138.5 0C214.991 0 277 62.0086 277 138.5V142.5C277 218.991 214.991 281 138.5 281C62.0086 281 0 218.991 0 142.5V138.5C0 62.0086 62.0086 0 138.5 0ZM137.5 17C70.9497 17 17 70.9497 17 137.5V143.5C17 210.05 70.9497 264 137.5 264C204.05 264 258 210.05 258 143.5V137.5C258 70.9497 204.05 17 137.5 17Z" fill="black"/>
</svg>
